# Blender 5.0.1
# www.blender.org
mtllib Object.mtl
o Cube
v 0.207404 4.414688 -0.465859
v 0.329740 0.010059 0.029304
v 1.000000 5.868093 1.000000
v 0.581883 -0.004954 0.370300
v -1.000000 4.379681 -1.000000
v 0.091424 0.001685 0.242277
v -0.050555 4.379681 0.454577
v 0.416418 0.004139 0.551689
vn 0.4102 0.2648 -0.8727
vn 0.5892 -0.2993 -0.7505
vn 0.7919 0.3187 0.5209
vn 0.7564 -0.5652 0.3292
vn -0.8532 0.0746 -0.5162
vn -0.8155 -0.5743 -0.0714
vn -0.6601 0.2364 0.7130
vn -0.5011 -0.2934 0.8141
vt 0.625000 0.500000
vt 0.875000 0.500000
vt 0.875000 0.750000
vt 0.625000 0.750000
vt 0.375000 0.750000
vt 0.625000 1.000000
vt 0.375000 1.000000
vt 0.375000 0.000000
vt 0.625000 0.000000
vt 0.625000 0.250000
vt 0.375000 0.250000
vt 0.125000 0.500000
vt 0.375000 0.500000
vt 0.125000 0.750000
s 1
usemtl Material
f 1/1/1 5/2/5 7/3/7 3/4/3
f 4/5/4 3/4/3 7/6/7 8/7/8
f 8/8/8 7/9/7 5/10/5 6/11/6
f 6/12/6 2/13/2 4/5/4 8/14/8
f 2/13/2 1/1/1 3/4/3 4/5/4
f 6/11/6 5/10/5 1/1/1 2/13/2
